<?xml version="1.0" encoding="utf-8"?>
<!-- Generator: Adobe Illustrator 24.3.0, SVG Export Plug-In . SVG Version: 6.00 Build 0)  -->
<svg version="1.1" id="Capa_1" xmlns="http://www.w3.org/2000/svg" xmlns:xlink="http://www.w3.org/1999/xlink" x="0px" y="0px"
	 viewBox="0 0 112.2 112.2" style="enable-background:new 0 0 112.2 112.2;" xml:space="preserve">
<style type="text/css">
	.st0{fill:#3B7DD1;}
	.st1{fill:#FFFFFF;}
</style>
<g>
	<circle class="st0" cx="56.1" cy="56.1" r="56.1"/>
</g>
<path class="st1" d="M82.1,25.7h-52c-2.4,0-4.4,2-4.4,4.4v52c0,2.4,2,4.4,4.4,4.4h52c2.4,0,4.4-2,4.4-4.4v-52
	C86.5,27.7,84.5,25.7,82.1,25.7z M47.3,71.6h-7.4V49.4h7.4V71.6z M43.6,46.4L43.6,46.4c-2.5,0-4.1-1.7-4.1-3.8
	c0-2.2,1.7-3.8,4.2-3.8c2.5,0,4.1,1.7,4.1,3.8C47.8,44.6,46.2,46.4,43.6,46.4z M73.9,71.6h-7.4V59.7c0-3-1.1-5-3.7-5
	c-2,0-3.3,1.4-3.8,2.7c-0.2,0.5-0.2,1.1-0.2,1.8v12.4h-7.4c0,0,0.1-20.2,0-22.2h7.4v3.1c1-1.5,2.7-3.7,6.7-3.7c4.9,0,8.5,3.2,8.5,10
	V71.6z"/>
</svg>
