<?xml version="1.0" encoding="utf-8"?>
<!-- Generator: Adobe Illustrator 24.3.0, SVG Export Plug-In . SVG Version: 6.00 Build 0)  -->
<svg version="1.1" id="Capa_1" xmlns="http://www.w3.org/2000/svg" xmlns:xlink="http://www.w3.org/1999/xlink" x="0px" y="0px"
	 viewBox="0 0 112.2 112.2" style="enable-background:new 0 0 112.2 112.2;" xml:space="preserve">
<style type="text/css">
	.st0{fill:#1DADEB;}
	.st1{fill:#FFFFFF;}
</style>
<g>
	<circle class="st0" cx="56.1" cy="56.1" r="56.1"/>
</g>
<g>
	<g>
		<path class="st1" d="M90,39.5c-2.4,1-4.9,1.7-7.6,2.1c2.7-1.6,4.8-4.2,5.8-7.3c-2.5,1.5-5.4,2.6-8.4,3.2c-2.4-2.6-5.9-4.2-9.6-4.2
			c-7.3,0-13.2,5.9-13.2,13.2c0,1,0.1,2,0.3,3c-10.9-0.5-20.6-5.8-27.1-13.8c-1.1,2-1.8,4.2-1.8,6.7c0,4.6,2.3,8.6,5.8,10.9
			c-2.1,0-4.2-0.7-6-1.6c0,0,0,0.1,0,0.1c0,6.4,4.6,11.7,10.6,12.9c-1.1,0.3-2.2,0.4-3.5,0.4c-0.8,0-1.7,0-2.5-0.2
			c1.7,5.2,6.5,9,12.3,9.2c-4.5,3.5-10.2,5.6-16.3,5.6c-1.1,0-2.1,0-3.2-0.2c5.8,3.8,12.7,5.9,20.2,5.9c24.2,0,37.5-20.1,37.5-37.5
			c0-0.6,0-1.1,0-1.7C86,44.5,88.2,42.1,90,39.5z"/>
	</g>
</g>
</svg>
