<?xml version="1.0" encoding="utf-8"?>
<!-- Generator: Adobe Illustrator 24.3.0, SVG Export Plug-In . SVG Version: 6.00 Build 0)  -->
<svg version="1.1" id="Capa_1" xmlns="http://www.w3.org/2000/svg" xmlns:xlink="http://www.w3.org/1999/xlink" x="0px" y="0px"
	 viewBox="0 0 112.2 112.2" style="enable-background:new 0 0 112.2 112.2;" xml:space="preserve">
<style type="text/css">
	.st0{fill:#FF0000;}
	.st1{fill:#FFFFFF;}
</style>
<g>
	<circle class="st0" cx="56.1" cy="56.1" r="56.1"/>
</g>
<path class="st1" d="M88.5,39.8c-0.8-2.9-3-5.2-6-6c-5.3-1.5-26.4-1.5-26.4-1.5s-21.1,0-26.4,1.4c-2.9,0.8-5.2,3.1-6,6
	C22.3,45,22.3,56,22.3,56s0,11,1.4,16.3c0.8,2.9,3,5.2,6,6c5.4,1.5,26.4,1.5,26.4,1.5s21.1,0,26.4-1.4c2.9-0.8,5.2-3,6-6
	c1.4-5.3,1.4-16.3,1.4-16.3S89.9,45.1,88.5,39.8z M49.3,66.2V46l17.6,10.1L49.3,66.2z"/>
</svg>
